<?xml version="1.0" encoding="utf-8"?>
<!-- Generator: Adobe Illustrator 26.0.1, SVG Export Plug-In . SVG Version: 6.00 Build 0)  -->
<svg version="1.2" baseProfile="tiny" id="Layer_1" xmlns="http://www.w3.org/2000/svg" xmlns:xlink="http://www.w3.org/1999/xlink"
	 x="0px" y="0px" viewBox="0 0 80 76" overflow="visible" xml:space="preserve">
<desc>Created with Sketch.</desc>
<g>
	<path fill="#FFFFFF" d="M42.2,0c2.6,0,4.6,1.8,4.6,4.4V31h28.4c2.6,0,4.6,1.8,4.6,4.4c0,2.3-2.1,4.4-4.6,4.4H42.7
		c-0.3,0-0.3,0-0.5,0c-1.3,0-2.3-0.5-3.1-1.3c-0.8-0.8-1.3-1.8-1.3-3.1v-31C37.8,1.8,39.9,0,42.2,0z"/>
	<path fill="#F27065" d="M28.8,33c2.6,0,4.4,2.1,4.4,4.4s-2.1,4.4-4.4,4.4H4.5c-2.6,0-4.4-2.1-4.4-4.4S2.2,33,4.5,33H28.8z"/>
	<path fill="#F27065" d="M43,44.6L43,44.6c0.5,0.3,1,0.5,1.3,0.8l23,21.9c1.3,1.3,1.8,3.1,1,4.9c-0.8,1.5-2.3,2.8-4.1,2.8l0,0
		c-1.3,0-2.3-0.5-3.1-1.3L40.9,54.7L21,73.5c-1,1-2.8,1.5-4.4,1s-2.8-1.5-3.1-3.1c-0.5-1.5,0-3.1,1.3-4.1l23-21.9
		C39.1,43.9,41.2,43.6,43,44.6z"/>
</g>
</svg>
