<svg width="143" height="42" xmlns="http://www.w3.org/2000/svg"><defs><linearGradient x1="50.04%" y1="-23.559%" x2="50.04%" y2="126.866%" id="a"><stop stop-color="#FF0029" offset="0%"/><stop stop-color="#AB00FF" offset="100%"/></linearGradient><linearGradient x1="-25.069%" y1="6.884%" x2="100.649%" y2="143.482%" id="b"><stop stop-color="#FF9100" offset="0%"/><stop stop-color="#FF0029" offset="51.53%"/><stop stop-color="#AB00FF" offset="100%"/></linearGradient></defs><g fill="none" fill-rule="evenodd"><path fill="url(#a)" d="M10.246 42l11.998-12.211L34.204 42v-7.311l-11.96-12.211-11.998 12.21z"/><path fill="#FF8F1C" d="M.229 17.267h16.95l5.065 5.21H5.294z"/><path fill="url(#b)" d="M44.26 17.267H27.31V5.172L22.244 0v22.478h16.95z"/><g fill="#fff"><path d="M142.989 26.717c0-5.834-3.428-9.761-8.57-9.761-5.028 0-8.837 4.005-8.837 9.294 0 5.483 3.733 9.333 9.103 9.333 2.78 0 5.37-.933 7.009-2.45l.19-.155-2.247-3.384-.229.234c-1.066 1.05-2.97 1.633-4.228 1.633-2.323 0-4.037-1.322-4.456-3.422h12.265v-1.322zm-4.761-2.334h-7.542c.305-1.594 1.447-3.227 3.77-3.227 1.258-.04 3.429.66 3.772 3.227zM68.562 30.217h-9.713V10.422h-4.99v24.656h16.607zM125.049 35.078l-6.97-9.49 6.78-8.127h-6.019l-5.523 6.806V10.422h-4.99v24.656h4.99V26.95l6.209 8.128zM105.851 35.078l-6.97-9.49 6.78-8.127h-6.056l-5.523 6.806V10.422h-4.99v24.656h4.99V26.95l6.208 8.128zM81.436 17.228l-4.038 10.539-3.961-10.54h-5.37l6.78 17.112-2.705 7h5.142l9.637-24.111z"/></g></g></svg>