<svg xmlns="http://www.w3.org/2000/svg" width="17" height="17" viewBox="0 0 17 17">
    <path fill="#7d7d7d" fill-rule="nonzero" d="M8.738.36c-4.408 0-8 3.588-8 8 0 4.413 3.592 8 8 8 4.41 0 8-3.587 8-8 0-4.412-3.59-8-8-8zM7.3 1.577a8.771 8.771 0 0 0-1.738 2.528 9.352 9.352 0 0 1-1.784-.595A6.915 6.915 0 0 1 7.3 1.577zm2.878 0A6.915 6.915 0 0 1 13.7 3.51a9.474 9.474 0 0 1-1.783.595 8.771 8.771 0 0 0-1.739-2.528zm-1.972.639v2.222a14.693 14.693 0 0 1-1.544-.128 7.64 7.64 0 0 1 1.544-2.094zm1.067 0a7.64 7.64 0 0 1 1.544 2.094c-.489.07-1.008.11-1.544.128V2.216zm5.127 2.139a6.889 6.889 0 0 1 1.25 3.472h-2.838a10.301 10.301 0 0 0-.506-2.722 10.06 10.06 0 0 0 2.094-.75zM3.077 4.36c.612.31 1.315.559 2.09.75a10.308 10.308 0 0 0-.5 2.717h-2.84a6.89 6.89 0 0 1 1.25-3.467zm3.15.967c.625.1 1.284.157 1.978.178v2.322H5.727c.05-.88.227-1.722.5-2.5zm5.022 0c.274.778.45 1.62.5 2.5H9.272V5.505a15.55 15.55 0 0 0 1.977-.178zM1.827 8.894h2.84c.046.948.217 1.862.5 2.716a9.84 9.84 0 0 0-2.09.75 6.89 6.89 0 0 1-1.25-3.466zm3.9 0h2.478v2.322c-.694.02-1.353.084-1.978.183a9.062 9.062 0 0 1-.5-2.505zm3.545 0h2.477a9.062 9.062 0 0 1-.5 2.505c-.623-.1-1.287-.162-1.977-.183V8.894zm3.539 0h2.838a6.889 6.889 0 0 1-1.25 3.472 9.985 9.985 0 0 0-2.088-.75c.283-.856.453-1.772.5-2.722zm-4.606 3.388v2.223a7.649 7.649 0 0 1-1.544-2.09c.489-.067 1.005-.115 1.544-.133zm1.067 0c.536.018 1.055.065 1.544.134a7.649 7.649 0 0 1-1.544 2.089v-2.223zm-3.711.334a8.758 8.758 0 0 0 1.744 2.533 6.918 6.918 0 0 1-3.528-1.939 9.31 9.31 0 0 1 1.784-.594zm6.355.005a9.442 9.442 0 0 1 1.783.59 6.918 6.918 0 0 1-3.527 1.938 8.758 8.758 0 0 0 1.744-2.528z"/>
</svg>
