<svg xmlns="http://www.w3.org/2000/svg" width="16" height="16" viewBox="0 0 16 16">
    <g fill="none" fill-rule="evenodd">
        <path fill="none" d="M0 0h16v16H0z"/>
        <path stroke="#FFF" d="M6.5 2v.695l-.333.118c-.184.065-.363.139-.538.223l-.32.153-.491-.492a1.5 1.5 0 1 0-2.121 2.121l.492.492-.153.319a5.462 5.462 0 0 0-.223.538l-.118.333H2a1.5 1.5 0 0 0 0 3h.695l.118.333c.065.184.139.363.223.538l.153.32-.492.491a1.5 1.5 0 0 0 2.121 2.121l.492-.492.319.153c.175.084.354.158.538.223l.333.118V14a1.5 1.5 0 0 0 3 0v-.695l.333-.118c.184-.065.363-.139.538-.223l.32-.153.491.492a1.5 1.5 0 0 0 2.121-2.121l-.492-.492.153-.319c.084-.175.158-.354.223-.538l.118-.333H14a1.5 1.5 0 0 0 0-3h-.695l-.118-.333a5.462 5.462 0 0 0-.223-.538l-.153-.32.492-.491a1.5 1.5 0 0 0-2.121-2.121l-.492.492-.319-.153a5.462 5.462 0 0 0-.538-.223L9.5 2.695V2a1.5 1.5 0 0 0-3 0z"/>
        <circle cx="8" cy="8" r="2" stroke="#FFF"/>
    </g>
</svg>
