<svg width="16" height="16" xmlns="http://www.w3.org/2000/svg">

 <g>
  <title>background</title>
  <rect fill="none" id="canvas_background" height="402" width="582" y="-1" x="-1"/>
 </g>
 <g>
  <title>Layer 1</title>
  <path transform="rotate(-180 7.328965663909913,7.499999999999999) " stroke="null" id="svg_9" d="m11.329013,4l0,7a2,2 0 0 1 -2,2l-5.5,0a0.5,0.5 0 1 1 0,-1l5.5,0a1,1 0 0 0 1,-1l0,-7a1,1 0 0 0 -1,-1l-5.5,0a0.5,0.5 0 0 1 0,-1l5.5,0a2,2 0 0 1 2,2z" fill-rule="evenodd" fill="#FFF"/>
  <path stroke="null" id="svg_11" d="m10.880241,7l0,-1.898a0.5,0.5 0 0 1 0.83,-0.376l2.74,2.398a0.5,0.5 0 0 1 0,0.752l-2.74,2.398a0.5,0.5 0 0 1 -0.83,-0.376l0,-1.898l-4.5,0a0.5,0.5 0 0 1 0,-1l4.5,0z" fill-rule="evenodd" fill="#FFF"/>
 </g>
</svg>